<?xml version="1.0" encoding="utf-8"?>
<!DOCTYPE svg PUBLIC "-//W3C//DTD SVG 20010904//EN" "http://www.w3.org/TR/2001/REC-SVG-20010904/DTD/svg10.dtd">
<svg version="1.0" xmlns="http://www.w3.org/2000/svg" width="925px" height="926px" viewBox="0 0 925 926" preserveAspectRatio="xMidYMid meet">
 <g fill="#46b652">
  <path d="M442 923.3 c-34.1 -1.6 -66.8 -6.7 -99.7 -15.3 -15 -4 -43.8 -13.6 -48.1 -16.1 -1.8 -1 -3.9 -1.9 -4.7 -1.9 -0.7 0 -4 -1.3 -7.3 -3 -3.4 -1.6 -6.4 -3 -6.7 -3 -0.7 0 -13 -5.7 -20.5 -9.4 -18 -9.1 -40.4 -22.7 -60 -36.3 -6 -4.3 -27.9 -21.3 -32.3 -25.2 -1.8 -1.6 -5.9 -5.2 -9.2 -8.1 -15.2 -13.5 -26.6 -25.3 -44.1 -46 -10.5 -12.4 -18.9 -23 -22.6 -28.5 -1.5 -2.2 -4.3 -6.2 -6.3 -9 -1.9 -2.7 -3.5 -5.4 -3.5 -5.9 0 -0.6 -0.8 -1.9 -1.8 -3 -2.3 -2.6 -13.8 -21.3 -14.8 -24.1 -0.4 -1.1 -1.5 -3.1 -2.4 -4.5 -2.5 -3.6 -17 -32.3 -17 -33.5 0 -0.6 -1.1 -3.3 -2.4 -6.1 -1.4 -2.7 -3.4 -7.6 -4.6 -10.9 -11.8 -32.2 -13.8 -38.7 -18.9 -59 -4.4 -17.6 -5.8 -23.9 -7.1 -33 -0.5 -3.3 -1.6 -10.4 -2.4 -15.7 -0.8 -5.3 -1.8 -13.4 -2.1 -18 -0.3 -4.6 -0.8 -10.5 -1 -13.3 -1 -10.9 -0.7 -61.6 0.4 -72 3.2 -30.8 11.9 -76.5 17.1 -90 0.4 -1.1 1.6 -4.7 2.5 -8 1 -3.3 2.4 -7.6 3.1 -9.5 0.8 -1.9 3.4 -9.1 5.9 -16 2.6 -6.9 5.1 -12.9 5.6 -13.4 0.5 -0.6 0.9 -1.6 0.9 -2.4 0 -1.4 3.4 -9.6 5 -12.2 0.5 -0.8 2.4 -4.4 4.1 -8 1.7 -3.6 3.5 -7.2 4 -8 0.5 -0.8 2.6 -4.9 4.7 -9.1 8.3 -16.5 30.5 -51.4 35.4 -55.8 1 -0.8 1.8 -1.9 1.8 -2.4 0 -0.5 1.8 -2.9 4 -5.4 2.2 -2.5 4 -5.1 4 -5.8 0 -0.7 0.7 -1.9 1.6 -2.6 0.9 -0.7 5 -5.4 9.2 -10.4 14.1 -16.6 60.7 -61.5 63.9 -61.5 0.6 0 2.6 -1.8 4.6 -4 1.9 -2.2 4.4 -4 5.5 -4 1 0 2.7 -1 3.8 -2.1 1 -1.2 3.5 -3.2 5.4 -4.5 1.9 -1.2 8.9 -6 15.5 -10.4 6.6 -4.5 12.9 -8.6 14 -9.1 1.1 -0.5 5.4 -2.9 9.5 -5.4 4.1 -2.4 9.8 -5.6 12.7 -6.9 2.8 -1.4 11.2 -5.5 18.7 -9.1 7.4 -3.6 13.8 -6.5 14.1 -6.5 0.3 0 3.1 -1.1 6.1 -2.5 3 -1.4 5.7 -2.5 5.9 -2.5 0.3 0 2.8 -1.1 5.7 -2.5 2.8 -1.4 5.9 -2.5 6.9 -2.5 0.9 0 4.1 -1.1 7.1 -2.5 3 -1.3 8.8 -3.3 12.8 -4.4 4.1 -1.1 14.7 -3.9 23.5 -6.4 8.8 -2.5 17.6 -4.7 19.5 -5 1.9 -0.3 8.7 -1.5 15 -2.6 39.8 -7.3 94.5 -8.7 136.5 -3.5 17.6 2.2 47.8 7.6 52 9.4 1.1 0.4 4 1.3 6.5 2 13.9 3.4 23.5 6.2 31.5 9 5 1.8 10.4 3.4 12 3.7 1.7 0.3 3.7 1.1 4.5 1.8 0.8 0.6 4.9 2.4 9 3.9 4.1 1.5 9 3.6 10.8 4.7 1.8 1 3.9 1.9 4.5 1.9 0.7 0 3.7 1.3 6.7 2.8 3 1.6 7.8 3.7 10.5 4.7 2.8 1 6.4 2.9 8 4.1 1.7 1.2 4.6 2.9 6.5 3.8 1.9 0.8 5.8 2.9 8.5 4.6 2.8 1.6 6.8 4 9 5.1 2.2 1.2 4.2 2.4 4.5 2.8 0.7 0.9 11.9 8.1 12.5 8.1 0.4 0 3.8 2.4 7.8 5.3 4 2.9 9.3 6.6 11.9 8.2 2.7 1.7 4.8 3.3 4.8 3.6 0 0.4 2.6 2.4 5.7 4.5 3.2 2.2 6.6 4.9 7.8 6.1 1.1 1.2 5.8 5.3 10.5 9.3 22.8 19.2 57.3 56.7 71.5 77.8 2.8 4.1 7.1 10.4 9.7 14 2.6 3.7 5.7 8.5 6.9 10.7 1.2 2.2 4 6.9 6.3 10.5 6.3 10 6.5 10.4 7.5 12.6 0.5 1.1 2.3 4.2 4 6.9 1.7 2.7 3.1 5.5 3.1 6.2 0 0.7 1.1 3.1 2.5 5.2 1.3 2.2 2.7 5.2 3.1 6.8 0.4 1.5 1.5 3.9 2.6 5.2 1 1.3 1.8 2.9 1.8 3.6 0 0.7 2.1 5.9 4.6 11.6 2.5 5.7 5.4 12.9 6.5 15.9 1.1 3 2.6 6.9 3.4 8.7 0.8 1.7 1.5 3.6 1.5 4.2 0 1.1 2.7 10 6.5 21.6 2.2 6.7 2.8 9.2 6.9 28.5 5.2 24.8 7.7 42.3 9.1 64.5 2.4 34.6 1.9 55 -2.1 90.5 -1.3 11.9 -7 43.2 -9.3 51.5 -0.5 1.7 -1.4 5.6 -2.2 8.8 -0.7 3.2 -1.6 6 -2.1 6.3 -0.4 0.3 -0.8 1.3 -0.8 2.3 0 2.1 -5.6 21.3 -7.5 25.6 -0.7 1.7 -2.9 7.5 -4.9 13 -2 5.5 -4.3 11.4 -5.1 13 -1.8 3.9 -3.8 8.7 -6.5 15.8 -1.3 3.2 -3.3 7.3 -4.4 9 -1.2 1.8 -4.4 7.9 -7.1 13.7 -2.7 5.8 -6.2 12.1 -7.7 14 -1.4 1.9 -5.5 8.3 -9 14.1 -22.3 37 -59.7 80.1 -93.9 108.1 -18 14.6 -24.7 19.9 -28.9 22.8 -35.9 24 -44.5 28.9 -87.2 49.2 -8.8 4.2 -39.7 14.7 -60.3 20.6 -29.6 8.5 -65.1 13.7 -102 15 -24.1 0.9 -28.3 1 -38.5 0.5z m43.2 -56.1 c1.5 -1.5 1.4 -20.1 -0.3 -31.5 -0.6 -4 -1.4 -11 -1.9 -15.7 -0.9 -9.8 -3.4 -24.9 -5 -30 -0.5 -1.9 -1 -5.2 -1 -7.2 0 -2 -0.4 -4 -1 -4.3 -0.5 -0.3 -1 -1.4 -1 -2.4 0 -0.9 -2 -8.9 -4.5 -17.6 -4.5 -16 -6.7 -20.1 -9.9 -18.9 -0.8 0.3 -2.3 3.8 -3.5 7.7 -1.3 4 -2.6 8.3 -3.1 9.7 -1.4 3.7 -4.6 17.5 -6 25.8 -0.8 4 -1.7 7.5 -2.2 7.8 -0.4 0.3 -0.8 2 -0.8 3.7 0 1.8 -0.7 6.4 -1.5 10.2 -1.8 8.1 -3.5 23 -4.1 36 -0.2 5 -0.9 11.7 -1.4 15 -1.2 7.5 -0.2 11.7 3.1 12.7 1.3 0.4 11.5 0.6 22.6 0.5 15.1 -0.2 20.5 -0.5 21.5 -1.5z m73.3 -9.8 c15 -3.6 34.7 -9.7 48.5 -15 12.7 -4.9 13 -5 21.5 -8.9 12 -5.5 16.2 -7.6 25 -12.5 5 -2.7 10.6 -5.8 12.5 -6.8 6 -3.1 17.2 -10.4 25.3 -16.4 4.3 -3.2 8.2 -5.8 8.7 -5.8 0.5 0 3.7 -2.4 7.2 -5.3 3.5 -2.9 8.1 -6.6 10.3 -8.2 4.4 -3.2 6.8 -5.3 18.9 -16.5 20.6 -19.1 46.5 -48.3 55.1 -62.1 0.6 -0.9 3 -4.5 5.5 -8 2.5 -3.5 5.4 -7.8 6.5 -9.5 1.1 -1.8 3.6 -5.6 5.5 -8.5 2 -3 4.1 -6.5 4.8 -7.9 0.7 -1.4 2.8 -5.2 4.7 -8.5 1.8 -3.3 3.4 -6.8 3.4 -7.7 0.1 -1 0.5 -1.8 1 -1.8 1.2 0 5.1 -6.7 5.1 -8.8 0.1 -0.9 0.9 -3.1 1.8 -4.8 4.9 -9.1 7.1 -14.3 13.5 -31.9 6.4 -17.3 8.2 -23.4 13.2 -44 l3.7 -14.9 -2.3 -1.9 c-1.7 -1.4 -3.2 -1.7 -5.4 -1.2 -1.6 0.4 -6.4 0.9 -10.5 1.1 -4.1 0.2 -11.1 1.2 -15.5 2 -4.4 0.9 -10.4 2 -13.3 2.4 -15.2 2.3 -45.6 11.4 -58.7 17.4 -2.7 1.3 -6.8 2.9 -8.9 3.6 -5.1 1.6 -35.6 17.2 -42.1 21.4 -2.7 1.8 -6.1 4 -7.5 4.9 -12.8 8.4 -22.2 15.5 -35.4 26.7 -9.6 8 -19.6 17.8 -19.6 18.9 0 0.4 -1.1 1.3 -2.4 2 -3.7 2 -27.8 30.3 -35.8 42.1 -1 1.4 -3.6 5.2 -5.9 8.5 -2.2 3.3 -5.2 8.1 -6.5 10.7 -1.3 2.6 -2.8 4.9 -3.3 5.3 -0.6 0.3 -2.6 4 -4.6 8.3 -2 4.2 -4.2 8.8 -5 10.2 -2.8 5.3 -4.5 8.7 -6.5 13.5 -1.2 2.8 -3.2 7.3 -4.5 10 -1.3 2.8 -3.3 7.9 -4.5 11.5 -1.1 3.6 -2.5 7.4 -2.9 8.5 -0.5 1.1 -1.4 3.8 -1.9 6 -0.6 2.2 -1.9 6.7 -3 10 -1.1 3.3 -2.8 9.6 -3.7 14 -0.9 4.4 -2.1 9.4 -2.6 11 -0.9 3.2 -3.2 19.3 -5 35.8 -1 8.9 -0.9 10 0.7 11.8 2.2 2.4 1.8 2.4 14.9 -0.7z m-177.5 0.1 c2.1 -2.5 -3.2 -41.5 -8.5 -63 -3.8 -15.5 -14.3 -46.5 -16.6 -49 -0.5 -0.5 -0.9 -1.5 -0.9 -2.3 0 -1.8 -13.1 -28 -18.1 -36.1 -2.1 -3.4 -3.9 -6.5 -3.9 -6.7 0 -1.7 -16.6 -24.9 -26.4 -36.9 -7.7 -9.4 -29.8 -32.3 -38.2 -39.5 -2.2 -1.9 -5.6 -4.8 -7.5 -6.5 -3.1 -2.7 -18.7 -14.5 -29.7 -22.4 -5.6 -4.1 -28.8 -17.4 -33.2 -19.1 -1.9 -0.8 -5.2 -2.4 -7.2 -3.7 -2.1 -1.3 -4.2 -2.3 -4.8 -2.3 -0.6 0 -2.9 -0.9 -5 -2 -13.3 -6.8 -58.9 -21.1 -72 -22.5 -3 -0.3 -9.1 -1.3 -13.5 -2 -4.4 -0.8 -12.3 -1.9 -17.5 -2.4 -14.5 -1.4 -15.1 -0.3 -9.9 19.6 5 19.6 13.5 45 21.3 63.8 2.8 6.8 18.4 37.4 20.7 40.7 1 1.4 1.9 2.9 1.9 3.2 0 0.4 0.8 1.9 1.8 3.4 1 1.5 6.7 10 12.6 18.9 24.2 36.4 61.2 74.9 96.1 99.9 9.6 6.9 33.4 22.4 35.4 23.1 0.9 0.3 2.3 1.2 3.1 1.9 2.3 1.9 34 17.9 38.2 19.3 2 0.7 6.4 2.5 9.6 4.1 3.3 1.6 7.9 3.4 10.3 4 2.4 0.7 4.9 1.5 5.4 1.9 1.2 0.8 14.5 5.3 22.5 7.5 3 0.8 8.7 2.4 12.5 3.5 12 3.4 19.5 4 21.5 1.6z m28.4 -141.7 c0.8 -1.3 3.3 -7.7 5.6 -14.3 2.3 -6.6 5.2 -14.2 6.5 -17 6.3 -13.5 9.5 -20.8 9.5 -21.8 0 -1.5 -7 -13.2 -15.4 -25.7 -3.8 -5.8 -8.1 -12.2 -9.5 -14.3 -2.1 -3.2 -3 -3.7 -5.5 -3.5 -2.6 0.3 -3.4 1.3 -8.2 10.8 -2.9 5.8 -6.4 13 -7.7 16 -1.4 3 -3.5 7.6 -4.7 10.3 -3.6 7.9 -3.7 11.6 -0.2 16.8 5.5 8.3 9.2 14.2 9.2 15.1 0 0.5 1 2.5 2.3 4.6 1.3 2 4.2 8 6.6 13.2 2.4 5.2 4.8 10.1 5.3 10.8 1.6 1.9 4.6 1.4 6.2 -1z m118.7 -13.3 c4.1 -8.2 10.1 -19.3 13.3 -24.5 5.1 -8.5 5.7 -9.9 5.1 -13.4 -1 -6.8 -3.4 -12.5 -11.8 -29.1 -7.2 -14 -8.6 -16 -10.8 -16.3 -2.8 -0.3 -6 2.9 -10.9 11.3 -1.3 2.2 -3.6 5.6 -5.2 7.5 -1.5 1.9 -2.8 3.9 -2.8 4.4 0 0.5 -0.6 1.7 -1.4 2.5 -0.7 0.9 -3.3 5.2 -5.6 9.5 -4.4 8.2 -4.8 11.8 -1.7 15.5 1.3 1.6 11.3 26.3 15.8 39.1 2.7 7.9 3.6 9.2 6.3 8.8 1.6 -0.2 3.9 -3.9 9.7 -15.3z m-187.6 -92.1 c1.4 -1.5 2.5 -3.1 2.5 -3.6 0 -0.5 4.1 -8.4 9 -17.6 5 -9.3 9 -17.6 9 -18.6 0 -2.6 -11.5 -14.2 -27.2 -27.5 -19.1 -16.1 -28.4 -23.1 -45.8 -34.7 -4.7 -3.1 -10.3 -6.8 -12.5 -8.3 -2.2 -1.5 -5.6 -3.3 -7.5 -4 -1.9 -0.8 -4.6 -2.4 -6 -3.7 -1.4 -1.2 -5.9 -3.8 -10 -5.8 -4.1 -1.9 -9.3 -4.5 -11.5 -5.7 -8.5 -4.5 -11.4 -5.9 -22.5 -10.2 -6.3 -2.5 -12.8 -5.2 -14.5 -6.1 -1.6 -0.9 -3.6 -1.6 -4.4 -1.6 -0.7 0 -3.9 -1.1 -7 -2.4 -10.1 -4.2 -30.5 -10.1 -47.1 -13.5 -5.8 -1.2 -11.9 -2.6 -13.6 -3.2 -1.7 -0.5 -6.2 -1.3 -10 -1.8 -3.8 -0.5 -10.3 -1.4 -14.4 -2 -29.5 -4.1 -46.5 -5 -49 -2.5 -1.6 1.6 -1.8 43.8 -0.2 45.6 0.8 1 4 1.7 10 2.2 4.8 0.4 13.9 1.4 20.2 2.2 6.3 0.8 14 1.7 17.2 1.9 3.1 0.2 9.1 1.3 13.4 2.5 4.3 1.1 8.7 2 9.8 2 1.1 0 3.3 0.4 5 0.9 1.7 0.5 8.3 2.2 14.6 3.7 6.3 1.4 14.4 3.7 18 5.1 3.6 1.3 9.4 3.3 13 4.4 3.6 1.2 8.5 3.1 11 4.4 2.5 1.3 6.1 2.6 8 3 1.9 0.4 4.6 1.4 6 2.3 2.5 1.6 22.4 11.6 29 14.6 1.9 0.9 5.5 2.9 8 4.6 2.5 1.6 7.7 4.8 11.5 7.1 3.9 2.3 8.5 5.3 10.3 6.7 1.8 1.4 4.6 3.2 6.2 4.1 8.4 4.5 38.5 29.9 53.5 45 7.2 7.2 13.6 13.1 14.3 13.1 0.7 0 2.4 -1.2 3.7 -2.6z m262.6 -11.7 c14.9 -14.7 29 -27.3 37.1 -33 2.5 -1.7 7.6 -5.3 11.3 -7.9 3.6 -2.7 6.7 -4.8 6.9 -4.8 0.2 0 6.1 -3.9 13.2 -8.6 13.2 -8.7 49 -27.1 61.9 -31.7 3.9 -1.4 9.5 -3.5 12.5 -4.6 3 -1.2 10.2 -3.5 16 -5.2 5.8 -1.6 11.4 -3.4 12.5 -3.8 7.4 -3.1 42.9 -9.9 60.5 -11.6 1.9 -0.1 7.1 -0.8 11.5 -1.4 4.4 -0.6 10.7 -1.2 14 -1.4 5.4 -0.2 6 -0.4 6.6 -2.7 0.4 -1.4 0.7 -10.7 0.8 -20.8 0.1 -21.2 -0.5 -23.7 -6.5 -24.8 -4.7 -0.9 -17.2 0 -35.9 2.6 -8.2 1.1 -18.4 2.5 -22.6 2.9 -4.2 0.5 -9.4 1.4 -11.5 2 -2.1 0.6 -8.6 2.2 -14.4 3.6 -22.3 5.3 -37.6 10 -52.5 16 -4.9 2 -11 4.3 -13.5 5.2 -2.5 0.8 -9 3.6 -14.5 6.2 -5.5 2.6 -11.6 5.5 -13.5 6.4 -1.9 0.9 -4.6 2.3 -6 3 -1.4 0.8 -4.3 2.4 -6.5 3.5 -7.1 3.6 -12 6.4 -13.6 7.8 -0.8 0.8 -1.9 1.4 -2.4 1.4 -0.4 0 -2.3 1.1 -4.1 2.5 -1.8 1.4 -3.5 2.5 -3.9 2.5 -0.8 0 -14.3 8.8 -19 12.4 -2.2 1.7 -5.3 3.8 -6.8 4.6 -1.6 0.8 -6.2 4.1 -10.2 7.5 -4 3.3 -10.2 8.2 -13.7 11 -5.7 4.5 -19.4 17.1 -29 26.8 -5.6 5.7 -5.7 7.5 -1 15.5 4.6 7.6 9.8 17.1 13.7 25.2 2.6 5.5 4.8 8 7.1 8 0.6 0 7.6 -6.4 15.5 -14.3z m-134.3 -0.7 c2.3 -3.2 4.2 -6.4 4.2 -7 0 -0.6 1.7 -2.9 3.8 -5.3 2.1 -2.3 5.2 -6.2 6.9 -8.7 1.7 -2.5 4 -5.4 5.2 -6.4 3.1 -2.8 2.7 -7.3 -1.1 -12.8 -12.1 -17.1 -23.4 -29.8 -26.5 -29.8 -2.3 0 -7.8 5.8 -15 15.7 -12.3 16.8 -14.3 19.7 -14.3 21 0 0.7 2.8 5 6.3 9.4 3.4 4.5 8 10.6 10.2 13.7 13.5 19.4 13.8 19.5 20.3 10.2z m-68.1 -84.6 c3.2 -4.2 9.5 -12.1 14.1 -17.6 4.5 -5.5 8.2 -10.5 8.2 -11.3 0 -0.7 -2 -2.9 -4.4 -4.9 -2.5 -2 -5.8 -4.9 -7.3 -6.4 -5.9 -5.7 -23.2 -20.2 -32.7 -27.3 -23.6 -17.7 -29.2 -21.7 -36.7 -26.4 -4.4 -2.7 -10.2 -6.5 -13 -8.2 -2.8 -1.8 -8.1 -4.7 -11.7 -6.4 -3.7 -1.8 -8 -4.2 -9.7 -5.5 -3.8 -2.8 -23.4 -13.1 -28.4 -14.9 -2.1 -0.7 -5.7 -2.5 -8 -3.9 -2.2 -1.4 -4.6 -2.6 -5.3 -2.6 -0.7 0 -3.1 -0.9 -5.3 -2 -10.8 -5.3 -46.8 -18.2 -65 -23.3 -36.7 -10.2 -59.3 -14.5 -98 -18.8 -12.9 -1.4 -18.3 -1.5 -19.6 -0.2 -1.4 1.4 -9.7 30 -11.1 38.5 -1 5.3 -0.9 7.1 0 8 0.8 0.8 6.2 1.5 15 1.9 7.5 0.4 14.4 0.9 15.2 1.3 0.8 0.3 5.8 1 11 1.5 14.5 1.5 28.9 3.8 40.6 6.6 5.8 1.4 11.4 2.5 12.5 2.5 1.1 0 2.7 0.4 3.7 1 0.9 0.5 4.4 1.6 7.7 2.4 12.9 3.1 33 9 38.1 11.2 1.7 0.7 8.4 3.4 15 5.9 6.5 2.6 13.9 5.7 16.4 6.9 2.5 1.3 5.6 2.7 7 3.1 3.7 1.1 25 11.6 28.9 14.2 1.9 1.3 4.4 2.3 5.7 2.3 1.3 0 2.8 0.8 3.3 1.9 0.6 1 5.2 4 10.3 6.6 5.1 2.5 12.3 6.8 16 9.3 3.7 2.6 9.3 6.5 12.5 8.7 3.2 2.2 10.2 7.3 15.6 11.5 5.5 4.1 10.9 8.2 12 9 2.7 1.8 21.5 17.7 24.2 20.5 6.4 6.3 14 12.5 15.6 12.5 1.1 0 4.2 -3.1 7.6 -7.6z m142.2 -1.3 c14.2 -12.9 34.8 -29.7 46.1 -37.6 3.2 -2.2 9.3 -6.5 13.6 -9.5 8.8 -6.2 22.8 -15 23.9 -15 0.4 0 2 -1 3.7 -2.1 1.6 -1.2 5.9 -3.7 9.6 -5.6 3.7 -2 7.4 -4.1 8.2 -4.7 0.8 -0.7 2.9 -1.8 4.5 -2.5 1.7 -0.7 3.7 -1.7 4.5 -2.2 0.8 -0.5 2.6 -1.4 4 -2 1.4 -0.6 7.2 -3.3 13 -5.9 5.8 -2.7 13.7 -6 17.5 -7.5 3.9 -1.4 7.9 -3 9 -3.5 4.7 -2.2 17.7 -7 18.8 -7 0.6 0 2.4 -0.6 3.8 -1.4 1.4 -0.7 5 -1.9 8 -2.6 3 -0.7 6.8 -1.8 8.4 -2.6 6.2 -2.7 52.6 -12.7 67.3 -14.4 5.3 -0.6 14.9 -1.8 21.3 -2.6 6.3 -0.8 15.1 -1.4 19.5 -1.4 4.9 0 8.5 -0.5 9.2 -1.2 1.9 -1.9 1.4 -8.5 -1.4 -17.8 -1.3 -4.7 -3.3 -11.8 -4.4 -15.8 -2.3 -8.7 -3.9 -12.1 -6.2 -13.6 -3.2 -2 -37.5 1.8 -71.8 8 -19.8 3.6 -57.6 13.5 -66.5 17.5 -2.2 1 -7.8 2.9 -12.5 4.4 -4.7 1.4 -13.4 4.5 -19.5 6.9 -14.2 5.6 -13.7 5.4 -15.5 6.5 -0.8 0.5 -4 1.9 -7 3.2 -3 1.3 -6.2 2.8 -7 3.4 -0.8 0.7 -4 2.2 -7 3.4 -3 1.3 -7.6 3.6 -10.1 5.2 -2.5 1.6 -4.9 2.9 -5.2 2.9 -0.4 0 -6.9 3.5 -14.4 7.7 -12.5 6.9 -17.6 10.1 -26.8 16.3 -5.7 3.9 -10.6 7 -11 7 -0.5 0 -14.3 10.2 -27.4 20.3 -14.3 11 -41.6 35.5 -41.9 37.7 -0.3 1.6 4.1 7.8 13 18.5 0.9 1.1 4.6 5.6 8.1 10 4.4 5.5 7.1 8.1 8.7 8.2 1.7 0.2 5.1 -2.3 11.9 -8.6z m-73.7 -74.9 c8.1 -7.4 20.8 -18.4 28.4 -24.5 3.2 -2.6 10 -8 14.9 -12 9.7 -7.8 19.8 -15.2 24.7 -17.9 1.7 -0.9 4 -2.5 5.2 -3.6 1.6 -1.5 15.6 -10.3 33.6 -21.2 11.7 -7.1 14.9 -8.9 17 -9.5 1.4 -0.4 3.6 -1.5 5 -2.4 5 -3.4 44.7 -22.3 50.5 -24.1 2.2 -0.7 7.8 -3 12.4 -5.1 4.6 -2.2 9.1 -3.9 10 -3.9 0.9 0 3 -0.7 4.6 -1.6 1.7 -0.8 5.3 -2.1 8 -2.9 2.8 -0.7 10 -2.8 16 -4.8 31.3 -9.9 72.7 -18.9 102.5 -22.2 8 -0.9 15.5 -2.1 16.8 -2.6 3.1 -1.2 2.8 -4.4 -0.8 -11 -3.3 -5.8 -3.4 -5.9 -10 -16.3 -2.4 -3.9 -5.2 -8.5 -6.2 -10.2 -2 -3.8 -16 -23.3 -22.6 -31.6 -11.3 -14.3 -44.1 -48.1 -48.4 -49.9 -1.6 -0.6 -2.8 -1.7 -2.8 -2.4 0 -0.7 -3.6 -4.2 -8 -7.6 -4.4 -3.5 -10.6 -8.5 -13.7 -11.2 -3.1 -2.6 -6.1 -4.7 -6.6 -4.7 -0.6 0 -4.5 -2.7 -8.9 -6 -4.3 -3.3 -8.3 -6 -8.8 -6 -0.6 0 -3.5 -1.8 -6.4 -4 -2.9 -2.2 -5.8 -4 -6.3 -4 -0.6 0 -3.8 -1.8 -7.1 -4 -3.3 -2.2 -6.6 -4 -7.4 -4 -0.8 0 -1.8 -0.4 -2.4 -1 -1.3 -1.3 -12.5 -7 -13.8 -7 -0.5 0 -1.7 -0.6 -2.5 -1.4 -2 -1.8 -18.6 -9.1 -26.2 -11.6 -3 -1 -9.8 -3.4 -15 -5.3 -14 -5.2 -37.4 -11.8 -49.2 -13.8 -2.8 -0.4 -11.5 -2 -19.2 -3.4 -7.7 -1.4 -17.8 -3 -22.5 -3.5 -7.9 -1 -76.4 -1.5 -77.9 -0.6 -0.3 0.2 -6.9 1.2 -14.6 2.1 -22.9 2.7 -43.3 7.2 -69.5 15.1 -13.8 4.2 -25.3 8.4 -26.7 9.8 -0.3 0.3 -1.4 0.6 -2.4 0.6 -1 0 -3.8 0.9 -6.1 1.9 -2.4 1.1 -5.8 2.5 -7.7 3.2 -1.8 0.7 -4.9 2.3 -6.8 3.6 -1.9 1.3 -5.9 3.2 -8.9 4.2 -3 1.1 -6.8 3.1 -8.5 4.5 -1.7 1.4 -3.8 2.6 -4.8 2.6 -1.5 0 -4.9 1.8 -12.7 6.7 -1 0.7 -5.6 3.5 -10.1 6.3 -4.6 2.8 -8.3 5.5 -8.3 6 0 0.5 -1 1.2 -2.2 1.6 -1.3 0.3 -5.5 3.1 -9.5 6 -3.9 3 -7.5 5.4 -7.9 5.4 -0.4 0 -3.3 2.1 -6.3 4.8 -3.1 2.6 -8.3 6.7 -11.6 9.2 -8.1 6.1 -46 44.3 -51 51.4 -2.2 3.2 -5.7 7.6 -7.9 9.9 -2.1 2.3 -5.8 7.1 -8.2 10.7 -2.4 3.6 -6.2 9 -8.3 12 -3.6 5.1 -10.9 16.6 -15.5 24.3 -1 1.7 -2.6 4.2 -3.7 5.5 -2.8 3.6 -4.1 8.5 -3 11.4 0.9 2.3 1.6 2.6 8.3 3.2 14.5 1.3 24.7 2.9 46.3 7.3 12.1 2.5 24.1 4.9 26.7 5.3 7.4 1.4 49 13.8 56.8 17.1 2.5 1 8.6 3.2 13.5 4.9 5 1.7 10.8 3.9 13 4.9 2.2 1.1 7 3.3 10.6 5 3.7 1.7 7.1 3.1 7.6 3.1 0.5 0 6.3 2.6 12.8 5.9 6.6 3.2 13.1 6.2 14.5 6.6 1.4 0.4 3.2 1.3 4 2 0.8 0.7 8 4.7 16 9 8 4.3 17.7 9.8 21.5 12.2 3.9 2.4 10.6 6.6 15 9.3 9.1 5.6 11.2 7 21.3 14.5 4.1 3 7.8 5.5 8.4 5.5 0.6 0 1.9 1.1 3 2.5 1.1 1.4 2.4 2.5 3 2.5 0.6 0 2.5 1.2 4.3 2.8 1.8 1.5 6.1 5 9.6 7.7 7.4 5.9 29.5 25.1 35.3 30.6 2.2 2.2 4.8 3.9 5.8 3.9 0.9 0 4.6 -2.6 8 -5.8z"/>
  <path d="M487.5 338.4 c-6 -3.1 -13.5 -7.7 -16.6 -10.4 -8.5 -7.4 -9.5 -7.4 -18.1 0 -4 3.4 -8.9 6.8 -10.8 7.6 -1.9 0.8 -4.1 2.1 -5 2.8 -1.8 1.5 -10.5 4.6 -13.2 4.6 -2.9 0 -2.2 -3.4 1.8 -8.5 5.4 -7.1 6.1 -9.1 3.9 -11.5 -1.5 -1.7 -3.1 -2 -9.3 -2 -9.1 0 -27.6 -2.6 -31.7 -4.5 -1.6 -0.7 -5 -1.9 -7.5 -2.5 -7.9 -2.1 -9.6 -5.4 -3.2 -6.6 2 -0.4 9.1 -1.9 15.7 -3.4 11.8 -2.7 12 -2.7 12 -5.5 0 -1.5 -0.7 -3.1 -1.5 -3.6 -2.9 -1.5 -8.5 -3.7 -11.3 -4.3 -1.5 -0.4 -4.7 -2.1 -7.1 -3.9 -2.4 -1.7 -7.9 -5.7 -12.2 -8.7 -8.4 -5.8 -36.4 -33.3 -36.4 -35.6 0 -5.4 48.3 7.1 70.3 18.3 5.5 2.8 7.4 2.5 8.3 -1.1 0.6 -2.6 -0.2 -4.4 -7.1 -15.1 -4.2 -6.5 -14.8 -27.6 -17 -34 -1 -2.7 -2.3 -6.3 -3 -8 -1.2 -2.8 -4.6 -14.6 -6.5 -22.5 -2.6 -11.1 -3 -13.3 -3 -15.8 0.1 -9.9 5.6 -6 29.6 20.8 5.6 6.3 13.9 17 15.4 20 0.7 1.4 2.1 3.4 3 4.5 1 1.1 4 6.2 6.7 11.4 5.2 10.2 7.2 12.3 10.1 10.5 1.4 -0.9 1.6 -2.3 1.4 -7.5 -0.2 -3.5 -0.8 -7.8 -1.3 -9.5 -1.3 -4.4 -1.9 -21.9 -0.8 -28.9 0.5 -3.3 1.3 -9.1 1.9 -13 1.9 -13.3 4.8 -29.1 6.5 -35 1 -3.3 2.8 -10 4.1 -15 3.4 -13.4 6.3 -17.9 9.1 -14.2 3.7 4.8 9.2 28.8 14.8 63.7 1.3 8.2 1.5 15 1.2 31 -0.3 11.3 -0.8 22.4 -1.2 24.7 -0.6 3.5 -0.4 4.4 0.9 4.9 2.4 0.9 5.2 -2.1 8.9 -9.5 7.3 -14.9 31.8 -46.7 46 -59.8 4.6 -4.3 9 -5.6 10 -3 0.4 1 -0.6 8.7 -3 23.5 -0.3 1.8 -0.9 3.5 -1.4 3.8 -0.5 0.3 -0.9 1.6 -0.9 3 0 4.8 -9.3 30.4 -13.5 37.4 -1.2 1.9 -3.4 6 -4.8 9 -1.5 3 -4.8 8.7 -7.2 12.5 -5.9 9 -5.9 9.3 -4.5 11 1.7 2.1 3.3 1.9 9.1 -1 2.7 -1.4 8.2 -3.7 12.2 -5.1 4 -1.5 7.7 -3 8.2 -3.4 0.6 -0.4 3.5 -1.3 6.5 -2 3 -0.7 7.5 -1.9 10 -2.7 2.5 -0.8 6.8 -1.9 9.5 -2.3 2.8 -0.5 8.1 -1.6 11.8 -2.4 13.1 -2.8 12.9 -0.2 -0.9 13.4 -5.8 5.8 -11.5 11.3 -12.5 12.3 -1 0.9 -1.9 2.1 -1.9 2.6 0 0.5 -0.9 1.3 -2 1.6 -1.1 0.4 -4.1 2.4 -6.5 4.5 -3.8 3.3 -12.9 9.9 -16.8 12.2 -0.7 0.4 -5 2.2 -9.7 4 -6.5 2.6 -8.6 3.9 -8.8 5.4 -0.4 3 1.3 4 10.3 5.8 12.9 2.7 20.5 4.8 21.2 5.9 0.7 1.2 -3.6 4.6 -6 4.7 -1 0 -3.2 0.8 -5 1.7 -4.8 2.5 -17.8 4.3 -31.4 4.3 -11.1 0 -12.3 0.2 -13.3 1.9 -1.9 3.7 -1.1 5.8 5.8 14.4 2.7 3.5 3 7.7 0.5 7.7 -1 -0.1 -6.7 -2.6 -12.8 -5.6z"/>
 </g>
</svg>