<?xml version="1.0" encoding="utf-8"?>
<!DOCTYPE svg PUBLIC "-//W3C//DTD SVG 20010904//EN" "http://www.w3.org/TR/2001/REC-SVG-20010904/DTD/svg10.dtd">
<svg version="1.0" xmlns="http://www.w3.org/2000/svg" width="483px" height="496px" viewBox="0 0 483 496" preserveAspectRatio="xMidYMid meet">
 <g fill="#482181">
  <path d="M77.5 490.1 c-7.6 -1.9 -13.5 -7.1 -16 -14 -1.1 -3.2 -1.5 -8.5 -1.5 -20.2 l0 -15.8 5.3 -1.9 c2.8 -1.1 33.1 -12.9 67.2 -26.2 34.1 -13.3 65.4 -25.5 69.6 -27 l7.7 -2.9 6.3 2.1 c8.4 2.7 25.5 3 34.7 0.4 30.3 -8.3 52.8 -33.3 59.8 -66.6 2.5 -11.8 2.5 -41.1 0.1 -57 -4.9 -31.3 -14.2 -61.1 -26.8 -86.1 -6.1 -12 -9.2 -16 -10.9 -14.3 -0.6 0.6 -3 6.4 -5.4 12.9 -5.7 15.6 -9.4 23.7 -16 34.9 -10.6 17.9 -26.4 35.9 -41.8 47.1 -3.4 2.6 -11.6 7.6 -18.1 11.3 -17.6 9.9 -25.1 19 -29.3 35.4 -2.3 8.7 -1.5 25.9 1.6 34.5 2 5.7 6.9 14.2 11.8 20.2 l2 2.5 7.6 -4.4 c17.6 -10.1 42.8 -31.7 54.1 -46.5 3.2 -4.2 6 -7.3 6.3 -7.1 0.5 0.6 -5.5 11.5 -11.3 20.6 -11.6 18 -31.9 40.5 -43.4 47.9 -7.5 4.8 -32.5 16.2 -86.6 39.3 -23.1 9.9 -42.6 18.2 -43.2 18.5 -1 0.4 -1.3 -16.5 -1.5 -81.3 l-0.3 -81.9 -21 -0.5 c-22.4 -0.5 -24.4 -1 -29.1 -6.2 -6.2 -6.7 -7.8 -17.6 -3.7 -25.3 1.3 -2.4 46.4 -48.2 113 -114.6 110.5 -110.4 110.8 -110.7 116.1 -111.9 6.1 -1.4 11.8 -0.8 17 2 2.1 1 52.6 50.9 113.8 112.2 96.4 96.5 110.4 110.9 111.9 115.1 3.8 10.1 -1.1 22.8 -10.5 27.1 -1.5 0.6 -11.1 1.3 -23.5 1.6 l-21 0.5 -0.5 105 c-0.4 83.7 -0.8 105.6 -1.8 108 -1.8 4.1 -5.9 8.3 -10.7 10.8 l-4 2.2 -162.5 0.2 c-89.4 0 -163.8 -0.2 -165.5 -0.6z"/>
 </g>
</svg>