<?xml version="1.0" encoding="utf-8"?>
<!DOCTYPE svg PUBLIC "-//W3C//DTD SVG 20010904//EN" "http://www.w3.org/TR/2001/REC-SVG-20010904/DTD/svg10.dtd">
<svg version="1.0" xmlns="http://www.w3.org/2000/svg" width="483px" height="496px" viewBox="0 0 483 496" preserveAspectRatio="xMidYMid meet">
 <g fill="#FFF">
  <path d="M232.5 483.4 c-23.9 -3.5 -41.2 -12.1 -57.6 -28.4 -11 -10.9 -18.7 -24.1 -24.3 -41.2 -0.7 -2.2 -2.6 -2.2 -9.1 -0.2 -7.1 2.2 -25.7 3 -35 1.5 -36.8 -6 -66.7 -32.1 -76.9 -67.3 -8.8 -30.3 -2.5 -61.5 17.3 -86.1 3.9 -4.8 7.1 -9.1 7.1 -9.6 0 -0.4 -1.2 -1.8 -2.6 -3.2 -5.9 -5.4 -14.7 -17.6 -18.4 -25.6 -9.5 -20.3 -12.1 -39.4 -8.1 -58.8 8.3 -40.2 37.8 -69 78 -76 10.8 -1.9 19.5 -1.9 31 0.1 5.1 0.9 9.8 1.4 10.4 1.1 0.7 -0.3 1.8 -3.1 2.5 -6.3 2.4 -11.5 13.2 -29.6 24.3 -40.5 12.2 -12 26 -19.8 43.7 -24.6 8.2 -2.2 11.8 -2.7 22.7 -2.7 11 0 14.5 0.5 23 2.8 23.3 6.3 42.4 19.6 55.3 38.7 4.6 6.9 10.9 19.8 12.3 25.3 1.4 5.5 0.1 5.3 14.9 2.1 11 -2.5 29.5 -1.6 41.5 2 20.5 6 38.6 18.4 50.4 34.4 7.2 9.8 10.6 16.4 14.7 28.6 3.3 9.8 3.8 12.4 4.2 23.9 0.5 14.4 -0.6 23.1 -4.5 34.1 -4.1 11.4 -10.9 23.5 -17.3 30.8 -3.3 3.8 -6 7.3 -6 7.8 0 0.6 2.6 4 5.8 7.5 9.9 11 18 25.8 21.7 40 3.8 14.5 2.8 41.3 -2.1 54.3 -5.6 14.7 -11.4 24 -21.9 34.6 -11.1 11.3 -18.9 16.8 -30.1 21.5 -17.7 7.3 -34.8 9.4 -52.7 6.5 -6.2 -1 -11.1 -1.4 -11.6 -0.9 -0.4 0.5 -1.9 4.7 -3.4 9.4 -11.6 36.8 -46.5 62.9 -86.2 64.4 -5.5 0.3 -11.3 0.2 -13 0z m29.1 -150.4 c8.1 -1.9 21.4 -7.7 27.6 -12.1 15.6 -10.9 26.3 -26.2 32.4 -46.4 2.6 -8.3 2.8 -10.3 2.8 -25.5 0 -13.8 -0.4 -17.8 -2.2 -24.5 -4.8 -17.9 -18.1 -37.4 -31.4 -46.6 -7.9 -5.3 -20.6 -11.4 -28.3 -13.4 -8.1 -2.1 -29.7 -2 -38.4 0.1 -31.9 7.9 -56.6 35.7 -62.1 69.7 -1.7 10.2 -0.8 29.1 1.7 37.7 2.9 9.9 8.1 21.4 12.3 27.6 4.7 6.9 14 16.6 19.7 20.6 6.7 4.5 20.1 10.6 28.3 12.7 10.3 2.7 26.7 2.8 37.6 0.1z"/>
 </g>
</svg>