<?xml version="1.0" encoding="utf-8"?>
<!DOCTYPE svg PUBLIC "-//W3C//DTD SVG 20010904//EN" "http://www.w3.org/TR/2001/REC-SVG-20010904/DTD/svg10.dtd">
<svg version="1.0" xmlns="http://www.w3.org/2000/svg" width="483px" height="496px" viewBox="0 0 483 496" preserveAspectRatio="xMidYMid meet">
 <g fill="#FFF">
  <path d="M77.5 490.1 c-6.9 -1.7 -13.1 -6.7 -15.7 -12.6 -1 -2.4 -1.4 -24.3 -1.8 -108 l-0.5 -105 -21 -0.5 c-22.4 -0.5 -24.4 -1 -29.1 -6.2 -6.2 -6.7 -7.8 -17.6 -3.7 -25.3 1.3 -2.4 46.4 -48.2 113 -114.6 110.5 -110.4 110.8 -110.7 116.1 -111.9 6.1 -1.4 11.8 -0.8 17 2 2.1 1 52.6 50.9 113.8 112.2 96.4 96.5 110.4 110.9 111.9 115.1 3.8 10.1 -1.1 22.8 -10.5 27.1 -1.5 0.6 -11.1 1.3 -23.5 1.6 l-21 0.5 -0.5 105 c-0.4 83.7 -0.8 105.6 -1.8 108 -1.8 4.1 -5.9 8.3 -10.7 10.8 l-4 2.2 -162.5 0.2 c-89.4 0 -163.8 -0.2 -165.5 -0.6z m107 -71.5 c3.6 -1.6 6.5 -5.9 6.5 -10.1 l0 -2.5 -12.6 0 -12.7 0 0.6 3.6 c1.4 8.4 9.7 12.5 18.2 9z m65 0 c3.6 -1.6 6.5 -5.9 6.5 -10.1 l0 -2.5 -12.6 0 -12.7 0 0.6 3.6 c1.4 8.4 9.7 12.5 18.2 9z m64 0 c3.6 -1.6 6.5 -5.9 6.5 -10.1 l0 -2.5 -12.6 0 -12.7 0 0.6 3.6 c1.4 8.4 9.7 12.5 18.2 9z m-108.2 -17.7 c3.8 -2 5.9 -4.9 6.4 -9 l0.6 -3.9 -33.8 0 -33.8 0 0.6 3.6 c0.7 4.2 2 6 6.2 8.6 2.7 1.6 5.5 1.8 27.3 1.8 16.2 0 25.1 -0.4 26.5 -1.1z m65 0 c3.8 -2 5.9 -4.9 6.4 -9 l0.6 -3.9 -29.7 0 -29.6 0 0 3.6 c0 1.9 -0.5 4.5 -1.1 5.6 -2.3 4.3 0.4 4.8 26.9 4.8 16.2 0 25.1 -0.4 26.5 -1.1z m64 0 c3.8 -2 5.9 -4.9 6.4 -9 l0.6 -3.9 -29.2 0 -29.1 0 0 3.5 c0 1.9 -0.5 4.6 -1.2 6 -1 2.2 -0.9 2.8 0.3 3.6 2.1 1.3 49.5 1.2 52.2 -0.2z m-122.3 -29.9 l0 -7 -33.5 0 -33.5 0 0 7 0 7 33.5 0 33.5 0 0 -7z m65 0 l0 -7 -29.5 0 -29.5 0 0 7 0 7 29.5 0 29.5 0 0 -7z m64 0 l0 -7 -29 0 -29 0 0 7 0 7 29 0 29 0 0 -7z m-127.4 -25 c0.7 -4.1 1.9 -9.2 2.8 -11.3 2.7 -6.2 12 -20.8 17.6 -27.4 0.5 -0.7 1 -1.5 1 -1.9 0 -0.4 0.6 -1.5 1.4 -2.3 2.6 -2.9 8.3 -14.5 11.2 -22.6 2.8 -7.7 2.9 -8.6 2.9 -26.7 0 -13.6 -0.3 -19 -1.2 -20 -0.7 -0.6 -1.3 -1.9 -1.3 -2.7 0 -3.7 -7.8 -16.7 -13.8 -23.2 -10.2 -11.1 -21.4 -17.8 -36.4 -22 -9 -2.5 -29.6 -2.6 -37.7 -0.3 -27.7 8.2 -45.6 25.7 -52.6 51.6 -1.4 5.5 -1.7 9.1 -1.2 20.5 0.3 7.6 1 15.2 1.6 16.8 0.5 1.7 2 5.8 3.2 9.3 2.9 8.5 12.2 24.1 20.7 34.7 6.1 7.7 13.2 25 13.2 32.3 l0 3.2 33.7 -0.2 33.7 -0.3 1.2 -7.5z m65 0 c0.7 -4.1 1.9 -9.2 2.8 -11.3 2.7 -6.2 12 -20.8 17.6 -27.4 0.5 -0.7 1 -1.5 1 -1.9 0 -0.4 0.6 -1.5 1.4 -2.3 2.6 -2.9 8.3 -14.5 11.2 -22.6 2.8 -7.7 2.9 -8.6 2.9 -26.7 0 -13.6 -0.3 -19 -1.2 -20 -0.7 -0.6 -1.3 -1.9 -1.3 -2.7 0 -3.7 -7.8 -16.7 -13.8 -23.2 -10.2 -11.1 -21.4 -17.8 -36.4 -22 -8.9 -2.5 -30.2 -2.7 -37.1 -0.3 -2.6 0.9 -4.7 2 -4.7 2.4 0 0.5 1.9 2.2 4.3 3.9 7.9 5.4 20.9 20.1 25 28.2 2 4.1 3.7 8.1 3.7 9 0 0.8 0.6 2.1 1.3 2.7 0.9 1 1.2 6.8 1.2 22 0 20.3 -0.1 20.9 -2.9 28.7 -3.5 9.8 -7.6 17.6 -14.9 28 -13.7 19.5 -18 28 -19.2 37.8 l-0.7 5.7 29.3 -0.2 29.3 -0.3 1.2 -7.5z m64 0 c0.7 -4.1 1.9 -9.2 2.8 -11.3 2.7 -6.2 12 -20.8 17.6 -27.4 0.5 -0.7 1 -1.5 1 -1.9 0 -0.4 0.6 -1.5 1.4 -2.3 2.6 -2.9 8.3 -14.5 11.2 -22.6 2.8 -7.7 2.9 -8.6 2.9 -26.7 0 -13.6 -0.3 -19 -1.2 -20 -0.7 -0.6 -1.3 -1.9 -1.3 -2.7 0 -3.7 -7.8 -16.7 -13.8 -23.2 -10.2 -11.1 -21.4 -17.8 -36.4 -22 -12.1 -3.4 -39.2 -2.1 -40.5 1.8 -0.2 0.6 1.6 2.5 3.9 4.1 8 5.5 21 20.1 25.1 28.3 2 4.1 3.7 8.1 3.7 9 0 0.8 0.6 2.1 1.3 2.7 0.9 1 1.2 6.8 1.2 22 0 20.3 -0.1 20.9 -2.9 28.7 -3.5 9.8 -7.6 17.6 -14.9 28 -13.7 19.5 -18 28 -19.2 37.8 l-0.7 5.7 28.8 -0.2 28.8 -0.3 1.2 -7.5z"/>
  <path d="M124 250.1 c-3 -5.6 4.8 -23 14.8 -32.9 7.4 -7.4 19.9 -14.8 23.1 -13.7 6 1.9 5.1 7.6 -1.7 10.7 -12.3 5.7 -21 15.4 -25.2 28.3 -1.3 3.9 -2.8 7.6 -3.3 8.3 -1.5 1.9 -6.5 1.5 -7.7 -0.7z"/>
 </g>
</svg>