<?xml version="1.0" encoding="utf-8"?>
<!DOCTYPE svg PUBLIC "-//W3C//DTD SVG 20010904//EN" "http://www.w3.org/TR/2001/REC-SVG-20010904/DTD/svg10.dtd">
<svg version="1.0" xmlns="http://www.w3.org/2000/svg" width="483px" height="431px" viewBox="0 0 483 431" preserveAspectRatio="xMidYMid meet">
 <g fill="#FFF">
  <path d="M278 415.1 c-15.8 -7.9 -32.9 -16.1 -33.5 -16.1 -0.7 0 -22.6 -10.4 -34.5 -16.3 l-2.5 -1.3 -0.3 -54.7 c-0.1 -30.8 0.2 -54.7 0.7 -54.7 1.1 0 18.8 5.8 22.6 7.4 1.7 0.8 5 2.1 7.5 3.1 2.5 0.9 5.3 2.1 6.2 2.6 1 0.5 2.3 0.9 2.9 0.9 0.6 0 2.5 0.6 4.2 1.4 1.8 0.8 6.1 2.4 9.5 3.5 3.5 1.1 8.3 2.9 10.5 3.9 2.3 1.1 5.9 2.7 8 3.6 l3.7 1.6 0 58.5 c0 32.2 -0.3 58.5 -0.7 58.4 -0.5 0 -2.4 -0.9 -4.3 -1.8z"/>
  <path d="M296 311.6 c0 -58 0.4 -105.7 0.8 -106 0.5 -0.3 1.2 -4.4 1.6 -9.1 0.3 -4.7 1 -9.3 1.5 -10.3 0.5 -0.9 1.6 -4 2.5 -6.8 1.9 -5.8 8.6 -18.6 14.1 -26.9 3.7 -5.5 4.9 -6.9 15.5 -17.6 12.8 -12.9 18.4 -17 32 -23.6 12.6 -6.1 14.8 -6.9 22.5 -8.4 8.1 -1.5 26.3 -2.3 27.8 -1.1 0.7 0.5 3.5 1.3 6.2 1.7 2.8 0.4 6.8 1.6 8.9 2.6 2.2 1 4.3 1.9 4.7 1.9 0.8 0 4 2 11.8 7.2 5.1 3.4 14.1 11.9 14.1 13.3 0 0.7 0.9 2 2 3 1.8 1.6 5.6 8.8 12.1 23 1.2 2.5 1.4 18.4 1.7 90.1 l0.3 87.1 -3.3 1.3 c-1.8 0.6 -4 1.6 -4.8 2.1 -0.8 0.5 -4 2.1 -7 3.5 -3 1.4 -9.1 4.3 -13.6 6.4 -4.4 2.1 -8.7 4 -9.5 4.2 -1.2 0.3 -1.5 -12 -1.9 -87.7 l-0.5 -88 -8.2 0.1 c-4.5 0.1 -9.4 0.6 -11 1.1 -1.5 0.6 -5.7 1.9 -9.3 2.9 -3.6 0.9 -6.9 2.1 -7.5 2.5 -0.5 0.3 -4.4 1.5 -8.5 2.4 -4.1 1 -9.2 2.4 -11.3 3.1 -2 0.8 -4.8 1.4 -6.2 1.4 -1.3 0 -2.7 0.4 -3 1 -0.3 0.5 -1.7 1 -3 1 -1.3 0 -2.6 0.4 -2.9 0.9 -0.3 0.5 -2.3 1.2 -4.3 1.6 -2.1 0.4 -7.3 1.8 -11.5 3.2 l-7.8 2.6 0 99.2 0 99.2 -11.5 5.7 c-6.4 3.1 -11.9 5.6 -12.3 5.6 -0.4 0 -5.2 2.3 -10.6 5 -5.5 2.8 -10.1 5 -10.3 5 -0.2 0 -0.3 -47.4 -0.3 -105.4z"/>
  <path d="M354.6 388.3 c-0.3 -0.4 -0.6 -21.9 -0.6 -47.8 0 -36.6 0.3 -47.5 1.3 -48.2 0.6 -0.5 6.6 -2.7 13.2 -4.8 6.6 -2.2 12.9 -4.5 14 -5.2 1.1 -0.7 2.9 -1.3 4 -1.3 1.2 0 2.5 -0.4 3.1 -0.8 0.5 -0.4 3.6 -1.6 6.9 -2.6 3.3 -1 6.9 -2.2 8 -2.7 1.1 -0.4 4.9 -1.6 8.5 -2.5 3.6 -0.9 7.1 -2.2 7.8 -2.7 1 -0.8 1.6 -0.7 2.3 0.4 0.5 0.8 0.9 19.7 0.9 42.7 0 39 -0.1 41.3 -1.9 43.1 -1.8 1.8 -25.8 14.1 -27.5 14.1 -0.5 0 -8.8 3.9 -18.5 8.7 -9.7 4.7 -18.3 9 -19.2 9.4 -0.9 0.4 -2 0.5 -2.3 0.2z"/>
  <path d="M186 371.5 c-2.5 -1.3 -14.3 -7.1 -26.2 -12.9 l-21.8 -10.6 0 -51 0 -51 2.3 0 c1.3 0 2.7 0.4 3.3 0.9 0.5 0.5 5.1 2.3 10.3 4.1 5.2 1.7 10.7 3.8 12.2 4.6 1.6 0.8 6.3 2.6 10.6 4 4.3 1.4 9.8 3.5 12.3 4.7 l4.5 2.2 0.3 53.8 c0.3 60.6 1 55.6 -7.8 51.2z"/>
  <path d="M113 336.4 c-5.7 -3 -10.8 -5.4 -11.3 -5.4 -0.5 0 -8 -3.4 -16.6 -7.6 -8.6 -4.2 -17.2 -8.3 -19.1 -9.2 l-3.5 -1.7 -0.3 -47.3 c-0.2 -44.5 -0.1 -47.2 1.5 -47.2 1 0 6.1 1.5 11.3 3.4 20.4 7.2 20.3 7.1 29.4 11.1 2.2 0.9 7.3 2.7 11.5 4.1 4.1 1.3 7.9 3 8.3 3.7 1 1.5 1 100.4 0.1 101 -0.5 0.2 -5.5 -2 -11.3 -4.9z"/>
  <path d="M39 301.4 c-4.1 -1.9 -8.2 -3.9 -9 -4.4 -0.8 -0.6 -2.7 -1.5 -4.2 -2.1 -1.5 -0.6 -6.5 -3 -11 -5.3 l-8.3 -4.2 -0.3 -43.4 c-0.1 -23.9 0 -44 0.2 -44.7 0.6 -1.4 5.9 -0.2 12 2.8 2.2 1 4.5 1.9 5 1.9 0.6 0 2.2 0.6 3.6 1.3 1.4 0.7 5.2 2.1 8.5 3.1 6.9 2.2 11.7 4.4 12.7 6 0.4 0.6 0.8 21.7 0.8 46.9 0 35.9 -0.3 45.7 -1.2 45.6 -0.7 0 -4.7 -1.6 -8.8 -3.5z"/>
  <path d="M273 280.3 c-3.6 -1.4 -8.5 -3.2 -11 -4 -2.5 -0.8 -5.9 -2.1 -7.5 -2.8 -5.9 -2.6 -13.1 -5.3 -32 -12 -2.7 -1 -6.1 -2.3 -7.5 -3 -1.4 -0.7 -3.7 -1.5 -5.2 -1.9 l-2.8 -0.6 0 -47.1 c0 -47.7 0.3 -53 4.1 -62.4 0.4 -1.1 1.5 -4.5 2.4 -7.5 2.3 -7.5 9.9 -23.2 12.5 -25.5 1.1 -1 2 -2.2 2 -2.6 0 -1.8 9.7 -12.8 14.5 -16.6 2.8 -2.2 5.7 -4.8 6.5 -5.7 0.8 -1 2.3 -2.2 3.5 -2.7 2.4 -1.1 4.8 -2.6 9.2 -5.6 1.7 -1.3 3.6 -2.3 4.2 -2.3 0.6 0 2.7 -0.7 4.8 -1.6 8.1 -3.5 13.8 -5.3 19.8 -6 2.8 -0.3 6.2 -1 7.6 -1.5 1.9 -0.8 4.1 -0.6 8 0.6 3 0.9 7.2 2.1 9.4 2.7 2.2 0.7 4.5 1.5 5 1.8 0.6 0.4 3 1 5.5 1.4 2.4 0.4 4.9 1.1 5.5 1.5 0.5 0.5 2.4 1.1 4 1.4 5.8 1.1 13.3 3.2 14.1 4 0.4 0.4 1.8 0.7 3 0.7 1.3 0 2.5 0.4 2.8 0.9 0.4 0.5 2.4 1.2 4.6 1.6 2.2 0.4 4.2 1.1 4.6 1.6 0.3 0.5 1.5 0.9 2.6 0.9 3 0 9.8 2.2 9.8 3.2 0 0.4 -0.9 0.8 -2 0.8 -3.1 0 -10.9 2.8 -20 7.2 -7.6 3.8 -12.5 6.7 -21.4 13.2 -5.2 3.8 -22.6 21 -22.6 22.3 0 0.8 -0.7 1.6 -1.5 2 -0.9 0.3 -2.2 1.7 -3.1 3.2 -0.8 1.4 -2.3 4 -3.4 5.6 -1.1 1.7 -3.1 5.3 -4.6 8 -1.4 2.8 -3.2 5.7 -3.8 6.5 -0.7 0.8 -2 4.2 -3 7.5 -1 3.3 -2.2 6.9 -2.7 8 -0.9 1.9 -1.8 6 -4.1 19 -0.6 3.3 -1.3 24.4 -1.7 47 -0.5 35.4 -0.8 41 -2.1 41.1 -0.8 0.1 -4.4 -0.9 -8 -2.3z"/>
  <path d="M354.2 241.8 l0.3 -34.3 2.5 -0.3 c1.4 -0.2 2.9 -0.8 3.5 -1.3 0.5 -0.5 2 -0.9 3.5 -0.9 1.4 -0.1 3.6 -0.7 5 -1.5 1.4 -0.8 3.7 -1.4 5.2 -1.5 1.5 0 2.9 -0.4 3.2 -0.9 0.3 -0.5 1.6 -1.1 2.8 -1.4 1.3 -0.3 4.8 -1.2 7.8 -2 15.6 -4.2 22.1 -6 27.9 -7.9 5.3 -1.7 6.5 -1.8 7.2 -0.7 0.5 0.8 0.9 14.7 0.9 30.9 0 31.8 -0.4 34.2 -5 34.8 -1.4 0.2 -3 0.8 -3.5 1.2 -1.4 1.2 -57.9 20 -59.9 20 -1.5 0 -1.6 -3.2 -1.4 -34.2z"/>
  <path d="M187.5 248.5 c-8.9 -4 -12.6 -5.5 -15.1 -6.1 -1.6 -0.4 -3.3 -1 -3.9 -1.4 -0.5 -0.4 -5 -2.2 -10 -3.9 -12.5 -4.2 -15.6 -5.5 -18.4 -7 l-2.3 -1.3 0.3 -49.3 c0.3 -37.8 0.7 -49.7 1.7 -50.7 0.6 -0.6 1.2 -2.9 1.2 -4.9 0 -2.1 0.4 -4 0.9 -4.3 0.5 -0.3 1.2 -2.1 1.5 -4 0.8 -4.3 1.7 -6 8 -15.6 7.3 -11 23.8 -30 26.2 -30 0.6 0 2.1 -1.1 3.4 -2.5 1.3 -1.4 2.9 -2.5 3.6 -2.5 0.6 0 1.7 -0.7 2.4 -1.5 1.5 -1.8 18 -9.9 23.5 -11.5 8.2 -2.4 13.2 -3.3 19 -3.3 6.3 0.1 12.3 1 14 2.3 0.6 0.4 2.6 1.1 4.5 1.5 5.7 1.2 22 6.6 22.5 7.6 0.3 0.5 -0.6 1.1 -2 1.5 -1.5 0.4 -4.9 1.7 -7.6 3 -2.7 1.3 -5.3 2.4 -5.9 2.4 -0.5 0 -3.7 1.9 -7 4.2 -3.3 2.4 -6.9 4.8 -7.8 5.3 -3.5 1.9 -14.7 12.5 -18.7 17.5 -2.2 2.8 -5.1 6.5 -6.5 8.3 -7.3 9.4 -19 39.5 -19 49 0 2 -0.4 3.9 -1 4.2 -0.6 0.4 -1 17.3 -1 47.6 0 52.1 0.5 48.6 -6.5 45.4z"/>
  <path d="M120.5 223.2 c-0.6 -0.5 -3.6 -1.7 -6.7 -2.6 -3.2 -1 -6 -2.2 -6.4 -2.7 -0.3 -0.5 -1.4 -0.9 -2.4 -0.9 -1 0 -3.1 -0.6 -4.7 -1.4 -3.4 -1.7 -6.5 -2.9 -11.8 -4.6 -2.2 -0.7 -5.3 -1.8 -7 -2.5 -1.6 -0.7 -5 -2 -7.5 -3 -2.5 -0.9 -5.4 -2.1 -6.5 -2.5 -1.1 -0.5 -2.8 -1.1 -3.8 -1.4 -1.7 -0.5 -1.8 -3.1 -1.5 -48.3 0.4 -52.6 -0.2 -46.6 6.5 -63.8 3.3 -8.6 6.9 -15.3 11.9 -22 6.1 -8.2 20.8 -22.9 27.9 -27.9 7.6 -5.3 23 -12.6 26.8 -12.6 1.3 0 2.8 -0.5 3.4 -1.1 1.4 -1.4 16.5 -1.6 19.4 -0.2 1.3 0.6 5.6 1.9 9.4 2.8 3.9 1 7.5 2.1 8 2.4 0.9 0.6 5.4 2 16 5.1 1.7 0.5 4.7 1.2 6.8 1.6 4.2 0.7 4.8 1.9 1.5 2.9 -7.2 2.2 -15.7 6.4 -22.5 11.2 -1.7 1.3 -3.5 2.3 -3.8 2.3 -1.6 0 -20.5 17.4 -20.5 18.8 0 0.5 -1.6 2.4 -3.6 4.3 -2 1.8 -4 4.3 -4.5 5.4 -0.5 1.1 -2.4 4.1 -4.1 6.7 -7.2 10.2 -10.8 17.7 -10.8 22.3 0 1.2 -0.5 2.6 -1 3.1 -2 2 -3.2 25.8 -3.6 67.7 -0.4 39.1 -0.6 41.7 -2.2 41.7 -1 0 -2.2 -0.4 -2.7 -0.8z"/>
  <path d="M42 193.8 c-2.5 -1.1 -5.8 -2.6 -7.3 -3.4 -1.6 -0.8 -3.7 -1.4 -4.7 -1.4 -1 0 -2.2 -0.4 -2.5 -1 -0.3 -0.5 -1.2 -1 -2 -1 -0.8 0 -2.6 -0.5 -4.2 -1.2 -1.5 -0.6 -5.5 -2.1 -8.8 -3.3 l-6 -2.2 -0.3 -35.5 c-0.1 -19.5 0.2 -38.8 0.7 -42.9 1.6 -11.8 3.5 -20 5.9 -24.5 0.5 -1 1.8 -3.9 2.8 -6.4 2.6 -6.2 7.1 -14.1 11.9 -20.4 2.6 -3.6 18.6 -19.4 22.7 -22.6 1.8 -1.4 4.8 -3.3 6.8 -4.2 1.9 -1 4.2 -2.1 5 -2.6 4.6 -2.6 13.4 -6.5 16.7 -7.4 2.1 -0.5 5.6 -1.4 7.8 -2 7.4 -2.1 25.1 -1.2 32.8 1.6 0.9 0.3 2.5 0.9 3.5 1.2 1.2 0.4 0.2 1.2 -3.8 2.8 -3 1.2 -7.3 3.2 -9.5 4.4 -2.2 1.2 -6 3.4 -8.5 4.8 -2.4 1.4 -4.8 3.1 -5.3 3.9 -0.4 0.8 -1.4 1.5 -2.1 1.5 -2.5 0 -27.6 27.8 -27.6 30.6 0 0.4 -0.7 1.5 -1.5 2.4 -1.7 1.9 -7.5 12.9 -7.5 14.3 0 0.5 -0.6 2.3 -1.4 4 -3.2 7.3 -4.6 11.9 -4.6 15.2 0 1.8 -0.4 3.7 -1 4 -0.6 0.4 -1 17.2 -1 47.1 0 36.5 -0.3 46.4 -1.2 46.3 -0.7 0 -3.3 -0.9 -5.8 -2.1z"/>
 </g>
</svg>