<?xml version="1.0" encoding="utf-8"?>
<!DOCTYPE svg PUBLIC "-//W3C//DTD SVG 20010904//EN" "http://www.w3.org/TR/2001/REC-SVG-20010904/DTD/svg10.dtd">
<svg version="1.0" xmlns="http://www.w3.org/2000/svg" width="483px" height="496px" viewBox="0 0 483 496" preserveAspectRatio="xMidYMid meet">
 <g fill="#FFF">
  <path d="M233.7 486.6 c-7.6 -2.1 -13.7 -9.2 -13.7 -16.1 l0 -2.5 19.6 0 19.7 0 -0.6 3.7 c-1.8 11.1 -13.5 18 -25 14.9z"/>
  <path d="M195.5 455.4 c-6.2 -3.2 -8.9 -6.6 -10.4 -13.3 l-0.9 -4.1 54.9 0 54.9 0 0 2.5 c0 5.3 -4.4 11.7 -10.2 14.6 -3.5 1.8 -6.5 1.9 -44.5 1.9 -35 0 -41.2 -0.2 -43.8 -1.6z"/>
  <path d="M184 407.5 l0 -9.5 55 0 55 0 0 9.5 0 9.5 -55 0 -55 0 0 -9.5z"/>
  <path d="M184 372.3 c0 -15.2 -8.7 -34.8 -27 -60.8 -25 -35.6 -33 -53.3 -37.1 -81.3 -2.6 -18.2 -0.2 -40.7 6.2 -58.2 12.7 -34.6 47.3 -63.9 85.7 -72.5 15.3 -3.4 39.1 -3.6 53.7 -0.4 25.9 5.8 51.2 20.9 67.5 40.4 20.4 24.4 28.2 49.3 25.9 83.1 -1 14.2 -2.1 20.6 -5.6 31.6 -5.4 17.3 -12.1 29.4 -31.9 57.6 -18.5 26.5 -24.8 40.4 -26.1 57.5 l-0.6 7.7 -55.3 0 -55.4 0 0 -4.7z m-22.1 -163 c1.4 -1.2 2.9 -4.6 4.2 -9.8 5.8 -22.9 21 -41.3 42.6 -51.5 6.8 -3.3 8.7 -4.6 9.8 -7.3 1.7 -4.1 0.9 -8 -2.2 -11.2 -3.8 -3.8 -8.9 -3.4 -18.9 1.5 -25.5 12.3 -44.6 36.2 -51 63.6 -1.7 7.7 -1.3 10.6 2.1 14 3 3 10.1 3.3 13.4 0.7z"/>
  <path d="M31.5 223.5 c-1.9 -1.8 -2.5 -3.5 -2.5 -6.9 0 -3.7 0.5 -4.8 3.1 -7 l3.1 -2.6 23.3 0 23.3 0 3.1 2.6 c2.6 2.2 3.1 3.3 3.1 7 0 3.4 -0.6 5.1 -2.5 6.9 l-2.4 2.5 -24.6 0 -24.6 0 -2.4 -2.5z"/>
  <path d="M393.8 224 c-1.4 -1.1 -2.8 -3.3 -3.2 -5 -0.7 -3.8 1.5 -9.4 4.2 -10.9 1.3 -0.7 10.7 -1.1 25.7 -1.1 l23.7 0 2.9 2.9 c3.8 3.9 3.9 8.7 0.3 13 l-2.6 3.1 -24.3 0 c-22.6 0 -24.4 -0.1 -26.7 -2z"/>
  <path d="M120.5 111.2 c-1.6 -1.1 -9.6 -8.7 -17.7 -16.9 -14.6 -14.8 -14.8 -15 -14.8 -19.4 0 -6 3.8 -9.9 9.5 -9.9 3.6 0 4.7 0.9 19.8 15.8 17.4 17.2 19.5 20.3 17.4 25.5 -1.8 4.1 -3.7 5.7 -7.9 6.3 -2.2 0.3 -4.3 -0.1 -6.3 -1.4z"/>
  <path d="M348.4 111.6 c-3.6 -1.6 -5.9 -6.4 -5 -10.3 0.5 -1.8 6.9 -9 17.4 -19.5 15.8 -15.9 16.9 -16.8 20.5 -16.8 5.3 0 9.7 4.3 9.7 9.6 0 3.6 -1 4.8 -16.7 20.6 -17.9 17.9 -19.8 19.1 -25.9 16.4z"/>
  <path d="M236.3 65.3 c-1.3 -0.2 -3.2 -1.6 -4.3 -3 -1.9 -2.4 -2 -4 -2 -26.8 l0 -24.3 3.1 -2.6 c4.3 -3.6 9.1 -3.5 13 0.3 l2.9 2.9 0 23.7 c0 15 -0.4 24.4 -1.1 25.7 -1 1.8 -6.8 5 -8.6 4.7 -0.4 -0.1 -1.8 -0.4 -3 -0.6z"/>
 </g>
</svg>