<?xml version="1.0" encoding="utf-8"?>
<!DOCTYPE svg PUBLIC "-//W3C//DTD SVG 20010904//EN" "http://www.w3.org/TR/2001/REC-SVG-20010904/DTD/svg10.dtd">
<svg version="1.0" xmlns="http://www.w3.org/2000/svg" width="483px" height="496px" viewBox="0 0 483 496" preserveAspectRatio="xMidYMid meet">
 <g fill="#FFF">
  <path d="M237.8 479 c-4.6 -2.4 -7.5 -6.1 -8.9 -11.2 -0.6 -2.5 -0.9 -14.9 -0.7 -33.6 0.3 -26 0.5 -30.1 2 -32.9 7.6 -13.8 28.4 -11.5 32.9 3.6 0.6 2.3 0.9 14.5 0.7 33.7 l-0.3 30.1 -2.8 4.1 c-5 7.6 -15 10.3 -22.9 6.2z"/>
  <path d="M128.3 451.9 c-6 -2.9 -9.8 -8.9 -9.8 -15.4 0 -4.5 0.8 -6.6 7.4 -18.1 18.9 -33 24.3 -41.6 27.4 -43.4 13.1 -8 29.7 2.9 27.2 17.9 -0.6 3.6 -25.8 48.4 -30.5 54.4 -5.1 6.4 -14.2 8.4 -21.7 4.6z"/>
  <path d="M344.2 449.3 c-4.7 -0.9 -10.6 -8.9 -24.6 -33.3 -13.9 -24.2 -14.1 -24.6 -14.1 -30.6 0 -5.1 0.5 -6.7 2.7 -9.6 1.5 -2 4.8 -4.6 7.3 -5.8 8.7 -4.2 19 -0.4 24.3 9.1 3.3 5.9 8.2 14.4 18.6 32.4 l8.7 15 -0.3 6.7 c-0.4 8 -2.4 11.3 -8.8 14.6 -4.1 2.1 -8.4 2.5 -13.8 1.5z"/>
  <path d="M48.5 370.7 c-3.9 -1.8 -9.3 -7.9 -10.1 -11.5 -0.3 -1.5 -0.8 -3.3 -1 -4.1 -0.8 -2.5 1.7 -9.1 4.6 -12.5 3.5 -3.9 50.6 -31.5 55.9 -32.7 5.6 -1.3 13.1 0.8 16.7 4.6 7.9 8.4 6.3 21.4 -3.3 27.7 -3.9 2.5 -43.2 25.2 -48 27.7 -3.9 2 -11.2 2.4 -14.8 0.8z"/>
  <path d="M231.5 371.3 c-31.7 -3.8 -57.6 -16.1 -78.5 -37.2 -14.4 -14.5 -23.7 -29.5 -30.3 -49.1 -4.3 -12.5 -5.7 -22.1 -5.7 -37.8 0 -23.2 3.6 -39.1 13.1 -57.7 15 -29.4 41.8 -52.3 72.8 -62.4 17.2 -5.6 45 -7.3 63.6 -3.8 27.4 5.2 55 21.6 71.9 42.7 14.9 18.6 24.9 40.1 27.5 59.3 1.4 10 1.4 29.8 0 40.7 -3 24.3 -17.7 52.2 -37.4 70.9 -25.1 23.8 -65.7 38.3 -97 34.4z"/>
  <path d="M420.9 369.7 c-2.4 -1.3 -9.1 -5.1 -14.9 -8.4 -5.8 -3.3 -15.4 -8.8 -21.5 -12.3 -17.2 -9.9 -20 -13.2 -19.3 -23.2 0.5 -6.2 2.3 -9.6 7.2 -13.2 2.2 -1.7 4.2 -2.1 9.9 -2.1 l7.2 0 22.5 13 c12.4 7.2 23.8 13.7 25.4 14.5 3.9 2 8.3 8.2 9.1 12.9 1.8 10.7 -7 21.1 -17.8 21.1 -1.8 0 -5.3 -1 -7.8 -2.3z"/>
  <path d="M18.5 262.3 c-4.8 -2.5 -7.3 -5.3 -9.1 -9.9 -3 -8 0.8 -17.4 8.6 -21.4 3.7 -1.9 5.8 -2 35.2 -2 35.2 0 35.4 0 41.2 7.3 2.7 3.4 3.1 4.6 3.1 10.2 0 5.6 -0.4 6.8 -3.1 10.2 -5.8 7.3 -6 7.3 -41.4 7.3 -26.7 -0.1 -32 -0.3 -34.5 -1.7z"/>
  <path d="M399.5 263.1 c-8.1 -2 -13 -8.5 -13 -17.2 0 -7.3 3.1 -12 10.1 -15.5 l5.1 -2.5 31.1 0.3 31 0.3 3.8 3.1 c5.5 4.4 7.6 7.6 8.1 12.6 0.8 6.5 -2.3 12.9 -7.9 16.5 l-4.3 2.8 -30.5 0.2 c-16.8 0.1 -31.9 -0.2 -33.5 -0.6z"/>
  <path d="M90.3 179.9 c-4.3 -2.3 -8.2 -4.5 -8.8 -4.9 -0.5 -0.5 -3 -1.9 -5.5 -3.3 -18 -9.8 -31.9 -18.2 -34.2 -20.7 -5.7 -6.2 -6 -16.5 -0.5 -22.6 4.1 -4.8 7.7 -6.4 13.9 -6.4 5.9 0 5.9 0 37.8 18.4 10.1 5.9 19.5 11.7 20.9 12.9 3.3 3 5.1 7.8 5.1 13.2 0 5.3 -1.6 8.8 -5.7 12.7 -6.4 6.1 -12.4 6.3 -23 0.7z"/>
  <path d="M378.4 183.1 c-11.2 -2.8 -16.6 -15.4 -11.1 -26.1 2.4 -4.7 1.2 -4 37.2 -24.8 18.2 -10.5 20.8 -11.6 26.8 -10.9 6.1 0.8 11.2 4.5 13.8 10.1 4.9 10.8 -0.1 20 -15.1 27.6 -1.4 0.7 -6.5 3.6 -11.5 6.5 -31.1 18.1 -33.6 19.2 -40.1 17.6z"/>
  <path d="M319.8 127.1 c-4.7 -1.5 -8.6 -5 -10.8 -9.7 -3.6 -7.3 -2.7 -10.6 8.5 -29.9 24.1 -41.8 23.4 -41 34.5 -41 5.8 0 7.2 0.4 10.3 2.8 4.4 3.3 6.5 7.1 7.3 12.9 0.7 5.1 -1.1 8.8 -19 39.6 -9.2 15.8 -12.7 20.9 -15.5 22.8 -4.1 2.6 -11.1 3.8 -15.3 2.5z"/>
  <path d="M154.3 122.8 c-4.4 -1.5 -7.3 -4.8 -13.6 -15.8 -2.9 -5.2 -8.7 -15.1 -12.7 -22 -11.1 -19.1 -11.3 -19.4 -10.8 -26.7 0.4 -5.9 0.7 -6.7 4.3 -10.3 7.4 -7.3 17.9 -7.6 24.8 -0.7 1.7 1.8 6.2 8.5 9.8 14.7 3.6 6.3 10.1 17.6 14.4 25 5.2 9 7.9 14.9 8.3 17.6 1.5 13.1 -11.2 22.4 -24.5 18.2z"/>
  <path d="M237.5 102.1 c-4.8 -2.9 -8.3 -7.7 -9 -12.4 -0.4 -2.3 -0.5 -17.2 -0.3 -33.2 0.3 -27.1 0.4 -29.2 2.4 -32.5 5.6 -9.7 18.2 -11.8 26.4 -4.4 6.9 6.3 7 6.6 7 40.1 0 26.8 -0.2 30.2 -1.9 33.8 -2.1 4.6 -5.4 7.9 -9.4 9.4 -4.4 1.7 -11.8 1.3 -15.2 -0.8z"/>
 </g>
</svg>